HIERARCHY
ROOT hip
{
	OFFSET 0.000000 0.000000 0.000000
	CHANNELS 6 Xposition Yposition Zposition Xrotation Zrotation Yrotation 
	JOINT abdomen
	{
		OFFSET 0.000000 3.422050 0.000000
		CHANNELS 3 Xrotation Zrotation Yrotation 
		JOINT chest
		{
			OFFSET 0.000000 8.486693 -0.684411
			CHANNELS 3 Xrotation Zrotation Yrotation 
			JOINT neck
			{
				OFFSET 0.000000 10.266162 -0.273764
				CHANNELS 3 Xrotation Zrotation Yrotation 
				JOINT head
				{
					OFFSET 0.000000 3.148285 0.000000
					CHANNELS 3 Xrotation Zrotation Yrotation 
					End Site
					{
						OFFSET 0.000000 3.148289 0.000000
					}
				}
			}
			JOINT lCollar
			{
				OFFSET 3.422053 6.707223 -0.821293
				CHANNELS 3 Yrotation Zrotation Xrotation 
				JOINT lShldr
				{
					OFFSET 3.285171 0.000000 0.000000
					CHANNELS 3 Zrotation Yrotation Xrotation 
					JOINT lForeArm
					{
						OFFSET 10.129278 0.000000 0.000000
						CHANNELS 3 Yrotation Zrotation Xrotation 
						JOINT lHand
						{
							OFFSET 8.486692 0.000000 0.000000
							CHANNELS 3 Zrotation Yrotation Xrotation 
							End Site
							{
								OFFSET 4.106464 0.000000 0.000000
							}
						}
					}
				}
			}
			JOINT rCollar
			{
				OFFSET -3.558935 6.707223 -0.821293
				CHANNELS 3 Yrotation Zrotation Xrotation 
				JOINT rShldr
				{
					OFFSET -3.148289 0.000000 0.000000
					CHANNELS 3 Zrotation Yrotation Xrotation 
					JOINT rForeArm
					{
						OFFSET -10.266159 0.000000 0.000000
						CHANNELS 3 Yrotation Zrotation Xrotation 
						JOINT rHand
						{
							OFFSET -8.349810 0.000000 0.000000
							CHANNELS 3 Zrotation Yrotation Xrotation 
							End Site
							{
								OFFSET -4.106464 0.000000 0.000000
							}
						}
					}
				}
			}
		}
	}
	JOINT lThigh
	{
		OFFSET 5.338403 -1.642589 1.368821
		CHANNELS 3 Xrotation Zrotation Yrotation 
		JOINT lShin
		{
			OFFSET -2.053232 -20.121670 0.000000
			CHANNELS 3 Xrotation Zrotation Yrotation 
			JOINT lFoot
			{
				OFFSET 0.000000 -19.300380 -1.231939
				CHANNELS 3 Xrotation Yrotation Zrotation 
				End Site
				{
					OFFSET 0.000000 -2.463878 4.653993
				}
			}
		}
	}
	JOINT rThigh
	{
		OFFSET -5.338403 -1.642589 1.368821
		CHANNELS 3 Xrotation Zrotation Yrotation 
		JOINT rShin
		{
			OFFSET 2.053232 -20.121670 0.000000
			CHANNELS 3 Xrotation Zrotation Yrotation 
			JOINT rFoot
			{
				OFFSET 0.000000 -19.300380 -1.231939
				CHANNELS 3 Xrotation Yrotation Zrotation 
				End Site
				{
					OFFSET 0.000000 -2.463878 4.653993
				}
			}
		}
	}
}
MOTION
Frames: 18
Frame Time: 0.071413
-0.000001 6.994015 37.994293 -89.999779 -0.002623 -49.999363 10.644318 -20.762907 -8.673059 8.143319 -22.484301 -17.716896 21.460434 -21.172750 -15.061394 8.871600 -10.503653 29.312088 -24.288727 -5.080628 -3.684725 -44.862858 16.072060 -64.850525 -14.328639 -10.147265 -34.974243 1.973004 -18.368633 69.885506 -29.361113 -0.611520 3.403126 8.166594 25.929308 32.940983 75.847427 -28.476120 32.275108 6.067425 2.971799 10.634416 -31.310486 5.851669 53.047234 89.594185 4.762113 -0.568799 4.544341 -7.557087 5.126237 -75.137535 -41.240425 7.312455 78.915321 9.637508 -2.685150 11.303211 -0.845566 19.642389 
-0.000001 6.994015 37.994293 -89.999779 -0.002623 -49.999363 10.644318 -20.762907 -8.673059 8.143319 -22.484301 -17.716896 20.705055 -21.172697 -15.061421 8.488604 -10.160281 29.342234 -24.288727 -5.080628 -3.684725 -45.158134 16.271469 -64.835670 -14.328639 -10.147265 -34.974243 1.972959 -18.368757 68.725304 -29.361113 -0.611520 3.403126 8.166594 25.929308 32.940983 75.847427 -28.476120 32.275108 6.067425 2.971799 10.634416 -31.310486 5.851669 53.047234 89.594185 4.762113 -0.568799 4.544341 -7.557087 5.126237 -75.137535 -41.240425 7.312455 78.915321 9.637508 -2.685150 11.303211 -0.845566 19.642389 
-0.000001 6.994015 37.994293 -89.999779 -0.002623 -49.999363 10.644318 -20.762907 -8.673059 8.143319 -22.484301 -17.716896 19.948837 -21.172640 -15.061445 8.106004 -9.816549 29.370033 -24.288727 -5.080628 -3.684725 -45.453724 16.471001 -64.821854 -14.328639 -10.147265 -34.974243 1.972914 -18.368881 67.562080 -29.361113 -0.611520 3.403126 8.166594 25.929308 32.940983 75.847427 -28.476120 32.275108 6.067425 2.971799 10.634416 -31.310486 5.851669 53.047234 89.594185 4.762113 -0.568799 4.544341 -7.557087 5.126237 -75.137535 -41.240425 7.312455 78.915321 9.637508 -2.685150 11.303211 -0.845566 19.642389 
-0.000001 6.994015 37.994293 -89.999779 -0.002623 -49.999363 10.644318 -20.762907 -8.673059 8.143319 -22.484301 -17.716896 19.191868 -21.172588 -15.061476 7.723788 -9.472482 29.395481 -24.288727 -5.080628 -3.684725 -45.749653 16.670647 -64.809128 -14.328639 -10.147266 -34.974247 1.972874 -18.369005 66.396034 -29.361113 -0.611520 3.403126 8.166594 25.929308 32.940983 75.847427 -28.476120 32.275108 6.067425 2.971799 10.634416 -31.310486 5.851669 53.047234 89.594185 4.762113 -0.568799 4.544341 -7.557087 5.126237 -75.137535 -41.240425 7.312455 78.915321 9.637508 -2.685150 11.303211 -0.845566 19.642389 
-0.000001 6.994015 37.994293 -89.999779 -0.002623 -49.999363 10.644318 -20.762907 -8.673059 8.143319 -22.484301 -17.716896 18.434198 -21.172531 -15.061503 7.341943 -9.128112 29.418598 -24.288727 -5.080628 -3.684725 -46.045906 16.870396 -64.797432 -14.328639 -10.147264 -34.974243 1.972838 -18.369131 65.227409 -29.361113 -0.611520 3.403126 8.166594 25.929308 32.940983 75.847427 -28.476120 32.275108 6.067425 2.971799 10.634416 -31.310486 5.851669 53.047234 89.594185 4.762113 -0.568799 4.544341 -7.557087 5.126237 -75.137535 -41.240425 7.312455 78.915321 9.637508 -2.685150 11.303211 -0.845566 19.642389 
-0.000001 6.994015 37.994293 -89.999779 -0.002623 -49.999363 10.644318 -20.762907 -8.673059 8.143319 -22.484301 -17.716896 17.675894 -21.172482 -15.061536 6.960453 -8.783463 29.439362 -24.288727 -5.080628 -3.684725 -46.342495 17.070236 -64.786827 -14.328639 -10.147265 -34.974243 1.972801 -18.369261 64.056465 -29.361113 -0.611520 3.403126 8.166594 25.929308 32.940983 75.847427 -28.476120 32.275108 6.067425 2.971799 10.634416 -31.310486 5.851669 53.047234 89.594185 4.762113 -0.568799 4.544341 -7.557087 5.126237 -75.137535 -41.240425 7.312455 78.915321 9.637508 -2.685150 11.303211 -0.845566 19.642389 
-0.000001 6.994015 37.994293 -89.999779 -0.002623 -49.999363 10.644318 -20.762907 -8.673059 8.143319 -22.484301 -17.716896 16.917023 -21.172428 -15.061566 6.579310 -8.438573 29.457813 -24.288727 -5.080628 -3.684725 -46.639416 17.270166 -64.777283 -14.328639 -10.147266 -34.974247 1.972769 -18.369390 62.883415 -29.361113 -0.611520 3.403126 8.166594 25.929308 32.940983 75.847427 -28.476120 32.275108 6.067425 2.971799 10.634416 -31.310486 5.851669 53.047234 89.594185 4.762113 -0.568799 4.544341 -7.557087 5.126237 -75.137535 -41.240425 7.312455 78.915321 9.637508 -2.685150 11.303211 -0.845566 19.642389 
-0.000001 6.994015 37.994293 -89.999779 -0.002623 -49.999363 10.644318 -20.762907 -8.673059 8.143319 -22.484301 -17.716896 16.157650 -21.172373 -15.061595 6.198497 -8.093464 29.473919 -24.288727 -5.080628 -3.684725 -46.936657 17.470167 -64.768799 -14.328639 -10.147264 -34.974243 1.972740 -18.369522 61.708492 -29.361113 -0.611520 3.403126 8.166594 25.929308 32.940983 75.847427 -28.476120 32.275108 6.067425 2.971799 10.634416 -31.310486 5.851669 53.047234 89.594185 4.762113 -0.568799 4.544341 -7.557087 5.126237 -75.137535 -41.240425 7.312455 78.915321 9.637508 -2.685150 11.303211 -0.845566 19.642389 
-0.000001 6.994015 37.994293 -89.999779 -0.002623 -49.999363 10.644318 -20.762907 -8.673059 8.143319 -22.484301 -17.716896 15.397845 -21.172321 -15.061629 5.818002 -7.748167 29.487709 -24.288727 -5.080628 -3.684725 -47.234257 17.670242 -64.761406 -14.328639 -10.147265 -34.974243 1.972713 -18.369654 60.531963 -29.361113 -0.611520 3.403126 8.166594 25.929308 32.940983 75.847427 -28.476120 32.275108 6.067425 2.971799 10.634416 -31.310486 5.851669 53.047234 89.594185 4.762113 -0.568799 4.544341 -7.557087 5.126237 -75.137535 -41.240425 7.312455 78.915321 9.637508 -2.685150 11.303211 -0.845566 19.642389 
-0.000001 6.994015 37.994293 -89.999779 -0.002623 -49.999363 10.644318 -20.762907 -8.673059 8.143319 -22.484301 -17.716896 14.637670 -21.172268 -15.061660 5.437812 -7.402709 29.499170 -24.288727 -5.080628 -3.684725 -47.532200 17.870373 -64.755112 -14.328639 -10.147265 -34.974243 1.972688 -18.369787 59.354065 -29.361113 -0.611520 3.403126 8.166594 25.929308 32.940983 75.847427 -28.476122 32.275108 6.067425 2.971799 10.634416 -31.310486 5.851669 53.047234 89.594185 4.762113 -0.568799 4.544341 -7.557087 5.126237 -75.137535 -41.240425 7.312455 78.915321 9.637508 -2.685150 11.303211 -0.845566 19.642389 
-0.000001 6.994015 37.994293 -89.999779 -0.002623 -49.999363 10.644318 -20.762907 -8.673059 8.143319 -22.484301 -17.716896 13.877197 -21.172218 -15.061696 5.057914 -7.057123 29.508320 -24.288727 -5.080628 -3.684725 -47.830475 18.070555 -64.749886 -14.328639 -10.147266 -34.974247 1.972666 -18.369915 58.175030 -29.361113 -0.611520 3.403126 8.166594 25.929308 32.940983 75.847427 -28.476120 32.275108 6.067425 2.971799 10.634416 -31.310486 5.851669 53.047234 89.594185 4.762113 -0.568799 4.544341 -7.557087 5.126237 -75.137535 -41.240425 7.312455 78.915321 9.637508 -2.685150 11.303211 -0.845566 19.642389 
-0.000001 6.994015 37.994293 -89.999779 -0.002623 -49.999363 10.644318 -20.762907 -8.673059 8.143319 -22.484301 -17.716896 13.116484 -21.172163 -15.061725 4.678296 -6.711436 29.515158 -24.288727 -5.080628 -3.684725 -48.129105 18.270765 -64.745758 -14.328639 -10.147264 -34.974243 1.972649 -18.370049 56.995129 -29.361113 -0.611520 3.403126 8.166594 25.929308 32.940983 75.847427 -28.476120 32.275108 6.067425 2.971799 10.634416 -31.310486 5.851669 53.047234 89.594185 4.762113 -0.568799 4.544341 -7.557087 5.126237 -75.137535 -41.240425 7.312455 78.915321 9.637508 -2.685150 11.303211 -0.845566 19.642389 
-0.000001 6.994015 37.994293 -89.999779 -0.002623 -49.999363 10.644318 -20.762907 -8.673059 8.143319 -22.484301 -17.716896 12.355609 -21.172115 -15.061763 4.298941 -6.365675 29.519674 -24.288727 -5.080628 -3.684725 -48.428082 18.471018 -64.742729 -14.328639 -10.147265 -34.974243 1.972633 -18.370180 55.814590 -29.361113 -0.611520 3.403126 8.166594 25.929308 32.940983 75.847427 -28.476120 32.275108 6.067425 2.971799 10.634416 -31.310486 5.851669 53.047234 89.594185 4.762113 -0.568799 4.544341 -7.557087 5.126237 -75.137535 -41.240425 7.312455 78.915321 9.637508 -2.685150 11.303211 -0.845566 19.642389 
-0.000001 6.994015 37.994293 -89.999779 -0.002623 -49.999363 10.644318 -20.762907 -8.673059 8.143319 -22.484301 -17.716896 11.594633 -21.172066 -15.061800 3.919841 -6.019873 29.521902 -24.288727 -5.080628 -3.684725 -48.727409 18.671280 -64.740791 -14.328639 -10.147266 -34.974247 1.972620 -18.370314 54.633690 -29.361113 -0.611520 3.403126 8.166594 25.929308 32.940983 75.847427 -28.476120 32.275108 6.067425 2.971799 10.634416 -31.310486 5.851669 53.047234 89.594185 4.762113 -0.568799 4.544341 -7.557087 5.126237 -75.137535 -41.240425 7.312455 78.915321 9.637508 -2.685150 11.303211 -0.845566 19.642389 
-0.000001 6.994015 37.994293 -89.999779 -0.002623 -49.999363 10.644318 -20.762907 -8.673059 8.143319 -22.484301 -17.716896 10.833623 -21.172014 -15.061836 3.540982 -5.674057 29.521816 -24.288727 -5.080628 -3.684725 -49.027092 18.871555 -64.739952 -14.328639 -10.147264 -34.974243 1.972610 -18.370447 53.452652 -29.361113 -0.611520 3.403126 8.166594 25.929308 32.940983 75.847427 -28.476120 32.275108 6.067425 2.971799 10.634416 -31.310486 5.851669 53.047234 89.594185 4.762113 -0.568799 4.544341 -7.557087 5.126237 -75.137535 -41.240425 7.312455 78.915321 9.637508 -2.685150 11.303211 -0.845566 19.642389 
-0.000001 6.994015 37.994293 -89.999779 -0.002623 -49.999363 10.644318 -20.762907 -8.673059 8.143319 -22.484301 -17.716896 10.072642 -21.171959 -15.061869 3.162349 -5.328256 29.519440 -24.288727 -5.080628 -3.684725 -49.327137 19.071846 -64.740234 -14.328639 -10.147265 -34.974243 1.972603 -18.370581 52.271740 -29.361113 -0.611520 3.403126 8.166594 25.929308 32.940983 75.847427 -28.476120 32.275108 6.067425 2.971799 10.634416 -31.310486 5.851669 53.047234 89.594185 4.762113 -0.568799 4.544341 -7.557087 5.126237 -75.137535 -41.240425 7.312455 78.915321 9.637508 -2.685150 11.303211 -0.845566 19.642389 
-0.000001 6.994015 37.994293 -89.999779 -0.002623 -49.999363 10.644318 -20.762907 -8.673059 8.143319 -22.484301 -17.716896 9.311769 -21.171915 -15.061912 2.783930 -4.982498 29.514771 -24.288727 -5.080628 -3.684725 -49.627533 19.272106 -64.741623 -14.328639 -10.147265 -34.974243 1.972597 -18.370712 51.091198 -29.361113 -0.611520 3.403126 8.166594 25.929308 32.940983 75.847427 -28.476120 32.275108 6.067425 2.971799 10.634416 -31.310486 5.851669 53.047234 89.594185 4.762113 -0.568799 4.544341 -7.557087 5.126237 -75.137535 -41.240425 7.312455 78.915321 9.637508 -2.685150 11.303211 -0.845566 19.642389 
-0.000001 6.994015 37.994293 -89.999779 -0.002623 -49.999363 10.644318 -20.762907 -8.673059 8.143319 -22.484301 -17.716896 8.551061 -21.171862 -15.061947 2.405714 -4.636814 29.507818 -24.288727 -5.080628 -3.684725 -49.928303 19.472364 -64.744125 -14.328639 -10.147266 -34.974247 1.972597 -18.370846 49.911293 -29.361113 -0.611520 3.403126 8.166594 25.929308 32.940983 75.847427 -28.476120 32.275108 6.067425 2.971799 10.634416 -31.310486 5.851669 53.047234 89.594185 4.762113 -0.568799 4.544341 -7.557087 5.126237 -75.137535 -41.240425 7.312455 78.915321 9.637508 -2.685150 11.303211 -0.845566 19.642389 
